<svg width="288" height="289" viewBox="0 0 288 289" fill="none" xmlns="http://www.w3.org/2000/svg">
<g filter="url(#filter0_dd_17_101)">
<circle cx="129" cy="157" r="30" fill="#0E101C" fill-opacity="0.2" shape-rendering="crispEdges"/>
<circle cx="129" cy="157" r="29" stroke="url(#paint0_linear_17_101)" stroke-width="2" stroke-linejoin="round" shape-rendering="crispEdges"/>
</g>
<g clip-path="url(#clip0_17_101)">
<path d="M121 149C121 148.293 121.281 147.614 121.781 147.114C122.281 146.614 122.959 146.333 123.667 146.333H134.333C135.041 146.333 135.719 146.614 136.219 147.114C136.719 147.614 137 148.293 137 149V154.333C137 155.041 136.719 155.719 136.219 156.219C135.719 156.719 135.041 157 134.333 157H123.667C122.959 157 122.281 156.719 121.781 156.219C121.281 155.719 121 155.041 121 154.333V149Z" stroke="white" stroke-width="2" stroke-linecap="round" stroke-linejoin="round"/>
<path d="M129 143.667V146.333" stroke="white" stroke-width="2" stroke-linecap="round" stroke-linejoin="round"/>
<path d="M125 157V169" stroke="white" stroke-width="2" stroke-linecap="round" stroke-linejoin="round"/>
<path d="M133 157V169" stroke="white" stroke-width="2" stroke-linecap="round" stroke-linejoin="round"/>
<path d="M119.667 162.333L125 159.667" stroke="white" stroke-width="2" stroke-linecap="round" stroke-linejoin="round"/>
<path d="M133 159.667L138.333 162.333" stroke="white" stroke-width="2" stroke-linecap="round" stroke-linejoin="round"/>
<path d="M125 165H133" stroke="white" stroke-width="2" stroke-linecap="round" stroke-linejoin="round"/>
<path d="M126.333 151.667V151.679" stroke="white" stroke-width="2" stroke-linecap="round" stroke-linejoin="round"/>
<path d="M131.667 151.667V151.679" stroke="white" stroke-width="2" stroke-linecap="round" stroke-linejoin="round"/>
</g>
<defs>
<filter id="filter0_dd_17_101" x="0.171143" y="0.835512" width="287.096" height="287.622" filterUnits="userSpaceOnUse" color-interpolation-filters="sRGB">
<feFlood flood-opacity="0" result="BackgroundImageFix"/>
<feColorMatrix in="SourceAlpha" type="matrix" values="0 0 0 0 0 0 0 0 0 0 0 0 0 0 0 0 0 0 127 0" result="hardAlpha"/>
<feOffset dx="-14.7192" dy="17.3476"/>
<feGaussianBlur stdDeviation="42.0548"/>
<feComposite in2="hardAlpha" operator="out"/>
<feColorMatrix type="matrix" values="0 0 0 0 0 0 0 0 0 0.22 0 0 0 0 1 0 0 0 0.3 0"/>
<feBlend mode="normal" in2="BackgroundImageFix" result="effect1_dropShadow_17_101"/>
<feColorMatrix in="SourceAlpha" type="matrix" values="0 0 0 0 0 0 0 0 0 0 0 0 0 0 0 0 0 0 127 0" result="hardAlpha"/>
<feOffset dx="15.7706" dy="-13.6678"/>
<feGaussianBlur stdDeviation="56.2483"/>
<feComposite in2="hardAlpha" operator="out"/>
<feColorMatrix type="matrix" values="0 0 0 0 0.970833 0 0 0 0 0 0 0 0 0 0.233 0 0 0 0.3 0"/>
<feBlend mode="normal" in2="effect1_dropShadow_17_101" result="effect2_dropShadow_17_101"/>
<feBlend mode="normal" in="SourceGraphic" in2="effect2_dropShadow_17_101" result="shape"/>
</filter>
<linearGradient id="paint0_linear_17_101" x1="161.153" y1="116.773" x2="91.5461" y2="179.249" gradientUnits="userSpaceOnUse">
<stop stop-color="#FF2CF7"/>
<stop offset="0.203125" stop-color="#FB047B" stop-opacity="0.796875"/>
<stop offset="0.369792" stop-color="#FF7EBC" stop-opacity="0.81"/>
<stop offset="0.578125" stop-color="white" stop-opacity="0"/>
<stop offset="0.727396" stop-color="#49FFE9" stop-opacity="0.65"/>
<stop offset="1" stop-color="#130EFF"/>
</linearGradient>
<clipPath id="clip0_17_101">
<rect x="113" y="141" width="32" height="32" fill="white"/>
</clipPath>
</defs>
</svg>
