<svg width="100" height="26" viewBox="0 0 100 26" fill="none" xmlns="http://www.w3.org/2000/svg">
<g clip-path="url(#clip0_1_1621)">
<path d="M3.23741 25.5396V16.3669H10L15.8273 25.5396H19.4964L13.3094 15.7554C14.1247 15.5396 14.8621 15.1919 15.5216 14.7122C16.181 14.2326 16.7446 13.6571 17.2122 12.9856C17.6799 12.3141 18.0396 11.5647 18.2914 10.7374C18.5432 9.91007 18.6691 9.05276 18.6691 8.16547C18.6691 7.15827 18.4772 6.16907 18.0935 5.19785C17.7098 4.22662 17.1763 3.35132 16.4928 2.57195C15.8094 1.79257 14.994 1.16907 14.0468 0.701447C13.0995 0.233821 12.0624 0 10.9353 0H0V25.5396H3.23741ZM10.9712 13.4892H3.23741V2.8777H10.7554C11.3789 2.8777 11.9724 3.01559 12.536 3.29137C13.0995 3.56715 13.5911 3.95084 14.0108 4.44244C14.4305 4.93405 14.7662 5.4976 15.018 6.13309C15.2698 6.76858 15.3957 7.44604 15.3957 8.16547C15.3957 8.86091 15.2878 9.53237 15.0719 10.1799C14.8561 10.8273 14.5564 11.3969 14.1727 11.8885C13.789 12.3801 13.3273 12.7698 12.7878 13.0576C12.2482 13.3453 11.6427 13.4892 10.9712 13.4892ZM35.8633 25.5396V0H32.6259V25.5396H35.8633ZM69.3165 25.5396V22.6619H53.1295L69.3165 2.51799V0H49.3885V2.8777H65.5396L49.0647 23.0216V25.5396H69.3165ZM100 25.5396V22.6619H85.8993V13.8489H97.8777V11.1511H85.8993V2.8777H99.6763V0H82.6619V25.5396H100Z" fill="#E0E0E0"/>
</g>
<defs>
<clipPath id="clip0_1_1621">
<rect width="100" height="26" fill="white"/>
</clipPath>
</defs>
</svg>
