<svg width="444" height="299" viewBox="0 0 444 299" fill="none" xmlns="http://www.w3.org/2000/svg">
<g filter="url(#filter0_dd_3_132)">
<mask id="path-1-inside-1_3_132" fill="white">
<path fill-rule="evenodd" clip-rule="evenodd" d="M101.18 137.92C99 142.198 99 147.799 99 159C99 170.201 99 175.802 101.18 180.08C103.097 183.843 106.157 186.903 109.92 188.82C114.198 191 119.799 191 131 191H191.515C195.749 191 199.829 192.581 202.957 195.434C205.248 197.523 208.752 197.523 211.043 195.434C214.171 192.581 218.251 191 222.485 191H283C294.201 191 299.802 191 304.08 188.82C307.843 186.903 310.903 183.843 312.82 180.08C315 175.802 315 170.201 315 159C315 147.799 315 142.198 312.82 137.92C310.903 134.157 307.843 131.097 304.08 129.18C299.802 127 294.201 127 283 127H131C119.799 127 114.198 127 109.92 129.18C106.157 131.097 103.097 134.157 101.18 137.92Z"/>
</mask>
<path fill-rule="evenodd" clip-rule="evenodd" d="M101.18 137.92C99 142.198 99 147.799 99 159C99 170.201 99 175.802 101.18 180.08C103.097 183.843 106.157 186.903 109.92 188.82C114.198 191 119.799 191 131 191H191.515C195.749 191 199.829 192.581 202.957 195.434C205.248 197.523 208.752 197.523 211.043 195.434C214.171 192.581 218.251 191 222.485 191H283C294.201 191 299.802 191 304.08 188.82C307.843 186.903 310.903 183.843 312.82 180.08C315 175.802 315 170.201 315 159C315 147.799 315 142.198 312.82 137.92C310.903 134.157 307.843 131.097 304.08 129.18C299.802 127 294.201 127 283 127H131C119.799 127 114.198 127 109.92 129.18C106.157 131.097 103.097 134.157 101.18 137.92Z" fill="#0E101C"/>
<path d="M101.18 137.92L102.071 138.374L101.18 137.92ZM101.18 180.08L100.289 180.534H100.289L101.18 180.08ZM109.92 188.82L110.374 187.929H110.374L109.92 188.82ZM304.08 188.82L303.626 187.929L304.08 188.82ZM312.82 180.08L311.929 179.626L312.82 180.08ZM312.82 137.92L311.929 138.374V138.374L312.82 137.92ZM304.08 129.18L303.626 130.071V130.071L304.08 129.18ZM109.92 129.18L110.374 130.071L109.92 129.18ZM100 159C100 153.383 100.001 149.23 100.269 145.945C100.537 142.672 101.065 140.349 102.071 138.374L100.289 137.466C99.1151 139.77 98.5533 142.386 98.2758 145.783C97.9992 149.168 98 153.416 98 159H100ZM102.071 179.626C101.065 177.651 100.537 175.328 100.269 172.055C100.001 168.77 100 164.617 100 159H98C98 164.584 97.9992 168.832 98.2758 172.217C98.5533 175.614 99.1151 178.23 100.289 180.534L102.071 179.626ZM110.374 187.929C106.799 186.108 103.892 183.201 102.071 179.626L100.289 180.534C102.302 184.485 105.515 187.698 109.466 189.711L110.374 187.929ZM131 190C125.383 190 121.23 189.999 117.945 189.731C114.672 189.463 112.349 188.935 110.374 187.929L109.466 189.711C111.77 190.885 114.386 191.447 117.783 191.724C121.168 192.001 125.416 192 131 192V190ZM191.515 190H131V192H191.515V190ZM210.369 194.695C208.46 196.436 205.54 196.436 203.631 194.695L202.283 196.173C204.956 198.61 209.044 198.61 211.717 196.173L210.369 194.695ZM283 190H222.485V192H283V190ZM303.626 187.929C301.651 188.935 299.328 189.463 296.055 189.731C292.77 189.999 288.617 190 283 190V192C288.584 192 292.832 192.001 296.217 191.724C299.614 191.447 302.23 190.885 304.534 189.711L303.626 187.929ZM311.929 179.626C310.108 183.201 307.201 186.108 303.626 187.929L304.534 189.711C308.485 187.698 311.698 184.485 313.711 180.534L311.929 179.626ZM314 159C314 164.617 313.999 168.77 313.731 172.055C313.463 175.328 312.935 177.651 311.929 179.626L313.711 180.534C314.885 178.23 315.447 175.614 315.724 172.217C316.001 168.832 316 164.584 316 159H314ZM311.929 138.374C312.935 140.349 313.463 142.672 313.731 145.945C313.999 149.23 314 153.383 314 159H316C316 153.416 316.001 149.168 315.724 145.783C315.447 142.386 314.885 139.77 313.711 137.466L311.929 138.374ZM303.626 130.071C307.201 131.892 310.108 134.799 311.929 138.374L313.711 137.466C311.698 133.515 308.485 130.302 304.534 128.289L303.626 130.071ZM283 128C288.617 128 292.77 128.001 296.055 128.269C299.328 128.537 301.651 129.065 303.626 130.071L304.534 128.289C302.23 127.115 299.614 126.553 296.217 126.276C292.832 125.999 288.584 126 283 126V128ZM131 128H283V126H131V128ZM110.374 130.071C112.349 129.065 114.672 128.537 117.945 128.269C121.23 128.001 125.383 128 131 128V126C125.416 126 121.168 125.999 117.783 126.276C114.386 126.553 111.77 127.115 109.466 128.289L110.374 130.071ZM102.071 138.374C103.892 134.799 106.799 131.892 110.374 130.071L109.466 128.289C105.515 130.302 102.302 133.515 100.289 137.466L102.071 138.374ZM211.717 196.173C214.66 193.488 218.501 192 222.485 192V190C218.002 190 213.681 191.674 210.369 194.695L211.717 196.173ZM191.515 192C195.499 192 199.34 193.488 202.283 196.173L203.631 194.695C200.319 191.674 195.998 190 191.515 190V192Z" fill="url(#paint0_linear_3_132)" mask="url(#path-1-inside-1_3_132)"/>
</g>
<defs>
<filter id="filter0_dd_3_132" x="0.171143" y="0.835512" width="443.096" height="297.622" filterUnits="userSpaceOnUse" color-interpolation-filters="sRGB">
<feFlood flood-opacity="0" result="BackgroundImageFix"/>
<feColorMatrix in="SourceAlpha" type="matrix" values="0 0 0 0 0 0 0 0 0 0 0 0 0 0 0 0 0 0 127 0" result="hardAlpha"/>
<feOffset dx="-14.7192" dy="17.3476"/>
<feGaussianBlur stdDeviation="42.0548"/>
<feComposite in2="hardAlpha" operator="out"/>
<feColorMatrix type="matrix" values="0 0 0 0 0 0 0 0 0 0.22 0 0 0 0 1 0 0 0 0.3 0"/>
<feBlend mode="normal" in2="BackgroundImageFix" result="effect1_dropShadow_3_132"/>
<feColorMatrix in="SourceAlpha" type="matrix" values="0 0 0 0 0 0 0 0 0 0 0 0 0 0 0 0 0 0 127 0" result="hardAlpha"/>
<feOffset dx="15.7706" dy="-13.6678"/>
<feGaussianBlur stdDeviation="56.2483"/>
<feComposite in2="hardAlpha" operator="out"/>
<feColorMatrix type="matrix" values="0 0 0 0 0.970833 0 0 0 0 0 0 0 0 0 0.233 0 0 0 0.3 0"/>
<feBlend mode="normal" in2="effect1_dropShadow_3_132" result="effect2_dropShadow_3_132"/>
<feBlend mode="normal" in="SourceGraphic" in2="effect2_dropShadow_3_132" result="shape"/>
</filter>
<linearGradient id="paint0_linear_3_132" x1="322.751" y1="115.071" x2="270.594" y2="259.566" gradientUnits="userSpaceOnUse">
<stop stop-color="#FF2CF7"/>
<stop offset="0.203125" stop-color="#FB047B" stop-opacity="0.796875"/>
<stop offset="0.369792" stop-color="#FF7EBC" stop-opacity="0.81"/>
<stop offset="0.578125" stop-color="white" stop-opacity="0"/>
<stop offset="0.727396" stop-color="#49FFE9" stop-opacity="0.65"/>
<stop offset="1" stop-color="#130EFF"/>
</linearGradient>
</defs>
</svg>
